<?xml version="1.0" encoding="utf-8"?>
<!-- Generator: Adobe Illustrator 26.5.0, SVG Export Plug-In . SVG Version: 6.00 Build 0)  -->
<svg version="1.1" id="corner_squid" xmlns="http://www.w3.org/2000/svg" xmlns:xlink="http://www.w3.org/1999/xlink" x="0px"
	 y="0px" viewBox="0 0 32 32" style="enable-background:new 0 0 32 32;" xml:space="preserve">
<g>
	<path d="M28.4,13.9V11c0-0.2-0.1-0.3-0.3-0.3h-2.9c-0.2,0-0.3-0.1-0.3-0.3V7.4c0-0.2-0.1-0.3-0.3-0.3h-2.9c-0.2,0-0.3-0.1-0.3-0.3
		V3.9c0-0.2,0.1-0.3,0.3-0.3h2.9c0.2,0,0.3-0.1,0.3-0.3V0.3c0-0.2-0.1-0.3-0.3-0.3H0.3C0.1,0,0,0.1,0,0.3v24.2
		c0,0.2,0.1,0.3,0.3,0.3h2.9c0.2,0,0.3-0.1,0.3-0.3v-2.9c0-0.2,0.1-0.3,0.3-0.3h2.9c0.2,0,0.3,0.1,0.3,0.3v2.9
		c0,0.2,0.1,0.3,0.3,0.3h2.9c0.2,0,0.3,0.1,0.3,0.3v2.9c0,0.2,0.1,0.3,0.3,0.3h2.9c0.2,0,0.3,0.1,0.3,0.3v2.9c0,0.2,0.1,0.3,0.3,0.3
		h2.9c0.2,0,0.3-0.1,0.3-0.3v-6.5c0-0.2,0.1-0.3,0.3-0.3h6.5c0.2,0,0.3-0.1,0.3-0.3v-6.5c0-0.2,0.1-0.3,0.3-0.3h6.5
		c0.2,0,0.3-0.1,0.3-0.3v-2.9c0-0.2-0.1-0.3-0.3-0.3h-2.9C28.6,14.2,28.4,14.1,28.4,13.9z"/>
</g>
</svg>
